<svg id="Layer_2" viewBox="0 0 96 96" xmlns="http://www.w3.org/2000/svg" data-name="Layer 2"><path d="m57.94 33.17h-5.44v21.91h-8.31v-21.91h-5.44l9.6-7.19z" fill="#848180"/><path d="m71.81 27.09a8 8 0 0 0 -4.13-2.82 14.56 14.56 0 0 0 .44-3.45 14.3 14.3 0 0 0 -27.12-6.44 9.28 9.28 0 0 0 -2.32-.3 9.54 9.54 0 0 0 -9.54 9.54v.45a7.95 7.95 0 0 0 1.3 15.79h12v-7.52h-6.8l12-8.37 12 8.37h-6.81v7.52h12.66a7.95 7.95 0 0 0 6.32-12.77z" fill="#4b91f3"/><path d="m86.92 18a4.85 4.85 0 0 0 -1.38-.21h-15.92c0 .52.08 1.05.08 1.58a15.81 15.81 0 0 1 -.47 3.73 8.56 8.56 0 0 1 6.2 8.24 8.57 8.57 0 0 1 -8.57 8.58h-14v18h-10.42v-18h-13.3a8.57 8.57 0 0 1 -1.41-17c0-.16 0-.33 0-.49a10.21 10.21 0 0 1 1.1-4.61h-13.29a5.05 5.05 0 0 0 -5 5.05v39.13s76.63-.68 77.46 0v-40.94a5 5 0 0 0 -1.08-3.06z" fill="#d6ebfe"/><path d="m13 16h10.69" fill="none" stroke="#231f20" stroke-linecap="round" stroke-miterlimit="10" stroke-width="2"/><path d="m88 64.28v2.72a5 5 0 0 1 -5 5h-69.95a5 5 0 0 1 -2.25-.53 5 5 0 0 1 -.53-2.25v-5z" fill="#2465b2"/><path d="m88 64.28v2.72a5 5 0 0 1 -5 5h-69.95a5 5 0 0 1 -2.25-.53 4.81 4.81 0 0 1 -.52-2 5.25 5.25 0 0 0 1.74.3h69.9a5 5 0 0 0 5-5v-.41z" fill="#2465b2"/><path d="m87 64.28v.41a5 5 0 0 1 -5 5h-70a5.25 5.25 0 0 1 -1.74-.3 1.48 1.48 0 0 1 0-.21v-5z" fill="#4b91f3"/><path d="m61.01 86.01h-23.48l.29-1.99h21.2l-1.4-9.81h.6 1.31z" fill="#64605f"/><path d="m59.3 84.14h-21.48l1.42-9.93h18.64z" fill="#848180"/><path d="m67.05 92h-35.82a5.57 5.57 0 0 1 1.19-2h31.79a6 6 0 0 0 -.31-1.91 5.88 5.88 0 0 1 2.38 1 6 6 0 0 1 .77 2.91z" fill="#64605f"/><path d="m64.21 90h-31.79a2.4 2.4 0 0 1 .22-.24 5.94 5.94 0 0 1 4.24-1.76h26a5.69 5.69 0 0 1 1 .09 6 6 0 0 1 .33 1.91z" fill="#848180"/><path d="m51.48 87h-.38a1 1 0 0 1 0-2h.38a1 1 0 1 1 0 2z" fill="#00284f"/><path d="m14 16a1 1 0 0 1 -1 1 2.73 2.73 0 0 0 -.41 0 1.57 1.57 0 0 0 -.3 0h-.15l-.33.1a1.78 1.78 0 0 0 -.36.14 1.23 1.23 0 0 0 -.26.12 1 1 0 0 1 -1-1.73.1.1 0 0 1 0 0l.21-.1.31-.14.23-.09.51-.15a.19.19 0 0 1 .1 0 2.07 2.07 0 0 1 .45-.05 1.8 1.8 0 0 1 .32-.06h.63a1 1 0 0 1 1.05.96z" fill="#00284f"/><path d="m9.5 19.12a3.48 3.48 0 0 0 -.37.94c0 .11-.05.22-.07.33s0 0 0 0a1 1 0 0 1 -1 .82h-.15a1 1 0 0 1 -.83-1.09.3.3 0 0 1 0-.13 2.5 2.5 0 0 1 .05-.29c0-.12.06-.24.1-.36a.65.65 0 0 1 0-.13 4.24 4.24 0 0 1 .18-.5c.08-.18.16-.36.25-.53l.06-.1a1 1 0 0 1 1.72 1z" fill="#00284f"/><path d="m9.5 19.12a3.48 3.48 0 0 0 -.37.94 1.94 1.94 0 0 0 -.07.33s0 0 0 0a4.48 4.48 0 0 0 -.05.64v33.75a1 1 0 0 1 -2 0v-33.73a4.7 4.7 0 0 1 .08-.92.3.3 0 0 1 0-.13 2.5 2.5 0 0 1 .05-.29c0-.12.06-.24.1-.36a.65.65 0 0 1 0-.13 4.24 4.24 0 0 1 .18-.5c.08-.18.16-.36.25-.53l.06-.1a1 1 0 0 1 1.72 1z" fill="#00284f"/><path d="m14 16a1 1 0 0 1 -1 1 2.73 2.73 0 0 0 -.41 0h-.3-.15l-.33.1a2.24 2.24 0 0 0 -.36.14 1.23 1.23 0 0 0 -.26.12 1 1 0 0 1 -1-1.73 1.3 1.3 0 0 1 .26-.14l.31-.14.23-.09.51-.15a.19.19 0 0 1 .1 0 2.07 2.07 0 0 1 .4-.01 1.8 1.8 0 0 1 .32-.06h.63a1 1 0 0 1 1.05.96z" fill="#00284f"/><path d="m31 72a1 1 0 0 0 -1-1h-16.95a4.06 4.06 0 0 1 -4.05-4v-4h.62a1 1 0 0 0 0-2h-.62v-37.77a1 1 0 0 0 -2 0v43.77a6.06 6.06 0 0 0 6.05 6h16.95a1 1 0 0 0 1-1z" fill="#00284f"/><path d="m13 16h10.69" fill="none" stroke="#231f20" stroke-linecap="round" stroke-miterlimit="10" stroke-width="2"/><path d="m42.44 36.55h-11.93a8 8 0 0 1 -7.77-6.28 7.43 7.43 0 0 0 -.18 1.64 8 8 0 0 0 8 8h11.88z" fill="#2465b2"/><path d="m73.26 30.27a8 8 0 0 1 -7.77 6.28h-12.66v3.31h12.66a8 8 0 0 0 8-7.95 7.43 7.43 0 0 0 -.23-1.64z" fill="#2465b2"/><path d="m13 16h10.69" fill="none" stroke="#231f20" stroke-linecap="round" stroke-miterlimit="10" stroke-width="2"/><g fill="#00284f"><path d="m23.69 17h-10.69a1 1 0 0 1 0-2h10.69a1 1 0 0 1 0 2z"/><path d="m83.23 15h-.1-10.69a1 1 0 0 0 0 2h10.56a4.06 4.06 0 0 1 4 4v33.79a1 1 0 0 0 2 0v-33.73a6.08 6.08 0 0 0 -5.77-6.06z"/><path d="m66.86 40.86h-4.22a1 1 0 0 1 0-2h4.22a7.57 7.57 0 0 0 6.3-11.77 1 1 0 1 1 1.66-1.09 9.57 9.57 0 0 1 -8 14.88z"/><path d="m71.92 25.37a1 1 0 0 1 -.59-.19 7.37 7.37 0 0 0 -2.33-1.18 1 1 0 0 1 -.7-1.2 14.59 14.59 0 0 0 .44-3.5 14.36 14.36 0 0 0 -13.02-14.3 1 1 0 1 1 .2-2 16.38 16.38 0 0 1 14.48 19.4 9.08 9.08 0 0 1 2.11 1.17 1 1 0 0 1 -.59 1.8z"/><path d="m22.48 26.91a1 1 0 0 1 -.62-.21 1 1 0 0 1 -.16-1.41 9.46 9.46 0 0 1 5-3.25 11.31 11.31 0 0 1 11.3-10.98 10.86 10.86 0 0 1 2 .18 16.29 16.29 0 0 1 12.75-8.24 1 1 0 0 1 1.09.9 1 1 0 0 1 -.91 1.1 14.32 14.32 0 0 0 -11.54 7.87 1 1 0 0 1 -1.14.52 9 9 0 0 0 -2.25-.33 9.3 9.3 0 0 0 -9.29 9.29v.39a1.05 1.05 0 0 1 -.84 1.09 7.46 7.46 0 0 0 -4.63 2.71 1 1 0 0 1 -.76.37z"/><path d="m20.94 29.82a1.09 1.09 0 0 1 -.26 0 1 1 0 0 1 -.7-1.23 3.24 3.24 0 0 1 .13-.41 1 1 0 1 1 1.88.68l-.09.26a1 1 0 0 1 -.96.7z"/><path d="m39.18 40.86h-10a9.57 9.57 0 0 1 -9.56-9 1 1 0 0 1 2-.11 7.57 7.57 0 0 0 7.56 7.14h10a1 1 0 0 1 0 2z"/><path d="m59.64 40.86h-3.81a1 1 0 0 1 0-2h3.81a1 1 0 0 1 0 2z"/><path d="m88 56.79a1 1 0 0 0 -1 1v3.21h-74.38a1 1 0 1 0 0 2h74.38v4a4.06 4.06 0 0 1 -4 4h-50a1 1 0 0 0 0 2h2.85l-1.73 12.07a7 7 0 0 0 -6.12 6.93v1h40v-1a7 7 0 0 0 -6.12-6.94l-.68-4.72a1 1 0 0 0 -2 .28l.65 4.38h-5.37a1 1 0 0 0 0 2h6.52a5 5 0 0 1 4.9 4h-35.8a4.86 4.86 0 0 1 1.37-2.53 4.94 4.94 0 0 1 3.53-1.47h13.1a1 1 0 1 0 0-2h-12l1.72-12h20.31l.67 4.67a1 1 0 1 0 2-.28l-.65-4.39h22.85a6.06 6.06 0 0 0 6-6v-9.21a1 1 0 0 0 -1-1z"/><path d="m42.44 58.85a1 1 0 0 1 -1-1v-8.74a1 1 0 0 1 2 0v8.74a1 1 0 0 1 -1 1z"/><path d="m52.83 58.85a1 1 0 0 1 -1-1v-25.52a1 1 0 0 1 1-1h3.63l-8.82-6.15-4.64 3.2a1 1 0 0 1 -1.39-.24 1 1 0 0 1 .25-1.4l5.17-3.6a1 1 0 0 1 1.14 0l12 8.37a1 1 0 0 1 -.57 1.82h-5.77v24.52a1 1 0 0 1 -1 1z"/><path d="m42.44 47.11a1 1 0 0 1 -1-1v-12.78h-5.8a1 1 0 0 1 -1-.7 1 1 0 0 1 .38-1.12l4.41-3.07a1 1 0 0 1 1.39.25 1 1 0 0 1 -.25 1.39l-1.79 1.25h3.61a1 1 0 0 1 1 1v13.78a1 1 0 0 1 -.95 1z"/></g></svg>