<svg id="Capa_1" enable-background="new 0 0 512 512" height="512" viewBox="0 0 512 512" width="512" xmlns="http://www.w3.org/2000/svg"><g><g><path d="m303.222 47.338h-94.443-173.711c-13.834 0-25.049 11.215-25.049 25.049v260.247c0 13.834 11.215 25.049 25.049 25.049h441.863c13.834 0 25.049-11.215 25.049-25.049v-260.247c0-13.834-11.215-25.049-25.049-25.049z" fill="#dfedff"/><path d="m221.512 357.682h68.976v57.525h-68.976z" fill="#80b6ff"/><path d="m358.031 464.662h-204.062v-2.509c0-25.927 21.018-46.945 46.945-46.945h110.171c25.927 0 46.945 21.018 46.945 46.945v2.509z" fill="#80b6ff"/><path d="m280.672 239.663-41.544-25.617-41.544-25.617 4.166 48.629 4.167 48.629 19.436-11.966 25.081 40.737 35.882-22.092-25.08-40.737z" fill="#ffee80"/></g><g><path d="m256 57.338c5.523 0 10-4.477 10-10s-4.477-10-10-10-10 4.477-10 10 4.477 10 10 10z"/><path d="m476.932 37.318h-175.712c-5.534 0-10.02 4.486-10.02 10.02s4.486 10.02 10.02 10.02h175.711c8.287 0 15.029 6.742 15.029 15.029v260.247c0 8.288-6.742 15.029-15.029 15.029h-441.863c-8.287 0-15.029-6.742-15.029-15.029v-260.247c0-8.288 6.742-15.029 15.029-15.029h175.712c5.534 0 10.02-4.486 10.02-10.02s-4.486-10.02-10.02-10.02h-175.712c-19.337 0-35.068 15.732-35.068 35.069v260.247c0 19.337 15.731 35.068 35.068 35.068h176.424v37.485h-10.486c-31.461 0-57.057 25.596-57.057 57.057 0 2.696.002 5.238 1.464 7.632 1.807 2.958 5.088 4.806 8.556 4.806h204.062c3.468 0 6.749-1.847 8.556-4.806 1.461-2.392 1.464-4.937 1.464-7.632 0-31.461-25.595-57.057-57.057-57.057h-10.486v-37.485h176.424c19.337 0 35.068-15.732 35.068-35.068v-260.247c0-19.337-15.731-35.069-35.068-35.069zm-129.705 417.324h-182.454c3.516-16.777 18.426-29.416 36.233-29.416h109.987c17.807.001 32.718 12.639 36.234 29.416zm-66.758-49.455h-48.937v-37.485h48.937z"/><path d="m388.286 89.603c-5.534 0-10.02 4.486-10.02 10.02v88.806c0 5.533 4.486 10.02 10.02 10.02s10.02-4.486 10.02-10.02v-25.541l33.948 32.751c1.945 1.877 4.452 2.809 6.956 2.809 2.624 0 5.246-1.025 7.212-3.063 3.842-3.982 3.728-10.326-.254-14.167l-40.425-39.001 37.095-34.098c4.074-3.745 4.341-10.083.596-14.158-3.745-4.073-10.083-4.34-14.158-.596l-30.971 28.469v-22.211c0-5.533-4.486-10.02-10.019-10.02z"/><path d="m98.586 89.603h-25.796c-5.534 0-10.02 4.486-10.02 10.02v88.806c0 2.665 1.062 5.22 2.951 7.101 1.878 1.87 4.42 2.919 7.069 2.919h30.301c18.705 0 33.924-15.324 33.924-34.029 0-11.008-5.274-20.805-13.425-27.006 3.431-4.928 5.45-10.909 5.45-17.356 0-16.793-13.661-30.455-30.454-30.455zm0 20.039c5.743 0 10.415 4.672 10.415 10.415s-4.672 10.415-10.415 10.415c-1.877 0-15.776.023-15.776.023v-20.853zm4.505 68.725c-3.7 0-12.956-.029-20.281 0v-27.808c2.142-.008 20.281 0 20.281 0 7.656 0 13.885 6.205 13.885 13.86s-6.229 13.948-13.885 13.948z"/><path d="m143.124 144.026c0 26.862 19.568 49.226 45.194 53.624l7.616 88.892c.296 3.465 2.369 6.528 5.475 8.093 3.104 1.564 6.8 1.405 9.761-.416l10.905-6.714 19.827 32.205c1.893 3.074 5.178 4.767 8.542 4.767 1.792 0 3.606-.48 5.244-1.488l35.883-22.091c2.263-1.393 3.88-3.628 4.495-6.213s.178-5.309-1.215-7.571l-19.827-32.205 10.904-6.713c2.961-1.823 4.765-5.051 4.767-8.528s-1.801-6.707-4.761-8.532l-63.126-38.925c17.321-9.117 29.165-27.289 29.165-48.184 0-30.009-24.414-54.423-54.423-54.423s-54.426 24.413-54.426 54.422zm109.58 112.855 19.827 32.206-18.818 11.586-19.827-32.205c-2.859-4.642-9.136-6.141-13.785-3.279l-5.589 3.441-5.245-61.226 52.305 32.252-5.589 3.44c-2.263 1.393-3.88 3.628-4.495 6.213-.615 2.586-.177 5.31 1.216 7.572zm-20.773-112.855c0 18.959-15.424 34.384-34.384 34.384s-34.384-15.425-34.384-34.384 15.425-34.384 34.384-34.384 34.384 15.425 34.384 34.384z"/><path d="m314.565 198.449c30.009 0 54.423-24.414 54.423-54.423s-24.414-54.423-54.423-54.423-54.423 24.414-54.423 54.423 24.414 54.423 54.423 54.423zm0-88.807c18.959 0 34.384 15.425 34.384 34.384s-15.425 34.384-34.384 34.384-34.384-15.425-34.384-34.384 15.425-34.384 34.384-34.384z"/></g></g></svg>