<svg viewBox="0 0 48 48" xmlns="http://www.w3.org/2000/svg"><g id="Family_protection" data-name="Family protection"><path d="m24 22a11.5 11.5 0 0 1 -9-11.22v-6.45a7.65 7.65 0 0 0 7.69-2l1.31-1.33 1.31 1.35a7.67 7.67 0 0 0 7.69 2v6.45a11.5 11.5 0 0 1 -9 11.2z" fill="#9dcc6b"/><path d="m33 4.33v6.45a11.48 11.48 0 0 1 -6.16 10.22 11.48 11.48 0 0 1 -8.84-11.22v-5.17c3.1-.31 4.57-2.13 6-3.61l1 1a7.71 7.71 0 0 0 8 2.33z" fill="#b5e08c"/><path d="m23 16c-.55 0-.43 0-3.71-3.29a1 1 0 0 1 1.42-1.42l2.22 2.23 4.3-5.16a1 1 0 0 1 1.54 1.28c-5.34 6.36-5.12 6.36-5.77 6.36z" fill="#edebf2"/><path d="m20 47h-19v-5a5 5 0 0 1 5-5h9a5 5 0 0 1 3.75 1.7c1.14 7.54.87 5.78 1.25 8.3z" fill="#6fabe6"/><path d="m19.7 45h-10.7a5 5 0 0 1 -4.09-7.88c.77-.18.7-.12 10.09-.12a5 5 0 0 1 3.75 1.7z" fill="#82bcf4"/><path d="m47 42v5h-19c0-4.88-.36-6.45 1.25-8.29a5 5 0 0 1 3.75-1.71c9.79 0 9.22 0 10 .1a5.09 5.09 0 0 1 2.8 1.6 5.18 5.18 0 0 1 1.2 3.3z" fill="#6fabe6"/><path d="m47 42v3h-11a5 5 0 0 1 -4.24-7.63c.89-.51-.43-.37 10.24-.37a5 5 0 0 1 5 5z" fill="#82bcf4"/><path d="m15 29.5c0 2.73.36 4.77-1.57 6.4a4.49 4.49 0 0 1 -7.43-3.4v-3a4.5 4.5 0 0 1 9 0z" fill="#f6ccaf"/><path d="m15 29.5c0 2.73.36 4.77-1.57 6.4a4.49 4.49 0 0 1 -5.43-4.4c0-2.73-.36-4.77 1.57-6.4a4.5 4.5 0 0 1 5.43 4.4z" fill="#ffdec7"/><path d="m15 30a10 10 0 0 1 -5-1c-1.19 1.19-2.48 1-4 1 0-4.93 5-6.33 7.68-3.68a4.63 4.63 0 0 1 1.32 3.68z" fill="#a87e6b"/><path d="m15 29.5v.5a10 10 0 0 1 -5-1 3.41 3.41 0 0 1 -2 1c0-2.85 1.56-4.43 3.5-4.86a4.52 4.52 0 0 1 3.5 4.36z" fill="#be927c"/><path d="m42 29.5c0 2.73.36 4.77-1.57 6.4a4.49 4.49 0 0 1 -7.43-3.4v-3a4.5 4.5 0 0 1 9 0z" fill="#f6ccaf"/><path d="m42 29.5c0 2.73.36 4.77-1.57 6.4a4.49 4.49 0 0 1 -5.43-4.4c0-2.73-.36-4.77 1.57-6.4a4.5 4.5 0 0 1 5.43 4.4z" fill="#ffdec7"/><path d="m42 30a10 10 0 0 1 -5-1c-1.19 1.19-2.48 1-4 1 0-4.93 5-6.33 7.68-3.68a4.63 4.63 0 0 1 1.32 3.68z" fill="#a87e6b"/><path d="m42 29.5v.5a10 10 0 0 1 -5-1 3.41 3.41 0 0 1 -2 1c0-2.85 1.56-4.43 3.5-4.86a4.52 4.52 0 0 1 3.5 4.36z" fill="#be927c"/><path d="m31 42v5h-14v-5a4 4 0 0 1 2.36-3.64c1.05-.48 1.23-.36 7.64-.36a4 4 0 0 1 4 4z" fill="#db5669"/><path d="m31 42v3h-7c-3.64 0-5.94-3.81-4.64-6.64a3.93 3.93 0 0 1 1.64-.36h6a4 4 0 0 1 4 4z" fill="#f26674"/><path d="m39.74 25.6a4.48 4.48 0 0 0 -4.48 0 2.5 2.5 0 1 1 4.48 0z" fill="#a87e6b"/><path d="m39.74 25.6a4.47 4.47 0 0 0 -2.68-.6 2.48 2.48 0 0 1 1.44-2.81 2.49 2.49 0 0 1 1.24 3.41z" fill="#be927c"/><path d="m27.59 32.72c-.25 2.19-.2 3.24-1.17 4.25a3.36 3.36 0 0 1 -5.75-1.97l-.26-2.3a3.36 3.36 0 0 1 2.92-3.7 3.47 3.47 0 0 1 4.26 3.72z" fill="#f6ccaf"/><path d="m27.59 32.72c-.25 2.19-.2 3.24-1.17 4.25a3.34 3.34 0 0 1 -3.75-2.97c-.23-2-.69-3.58.66-5a3.47 3.47 0 0 1 4.26 3.72z" fill="#ffdec7"/><path d="m23.78 23a1.09 1.09 0 0 0 .44 0 12.42 12.42 0 0 0 9.78-12.22v-6.45a1 1 0 0 0 -1.29-1 6.66 6.66 0 0 1 -6.71-1.68l-1.28-1.35a1.05 1.05 0 0 0 -1.44 0l-1.28 1.35a6.66 6.66 0 0 1 -6.68 1.73 1 1 0 0 0 -.89.15c-.61.47-.43.47-.43 7.25a12.42 12.42 0 0 0 9.78 12.22zm-7.78-17.43a8.6 8.6 0 0 0 7.4-2.57l.6-.61.6.61a8.6 8.6 0 0 0 7.4 2.57v5.21a10.43 10.43 0 0 1 -8 10.22 10.43 10.43 0 0 1 -8-10.19z"/><path d="m23.05 16c.62 0 .41 0 5.72-6.36a1 1 0 0 0 -1.54-1.28l-4.3 5.16-2.22-2.23a1 1 0 0 0 -1.42 1.42c3.27 3.29 3.16 3.29 3.76 3.29z"/><path d="m41.74 36a5.45 5.45 0 0 0 1.26-3.5c0-3 .37-5.35-2.08-7.3a3.49 3.49 0 1 0 -6.84 0c-2.45 1.95-2.08 4.34-2.08 7.3a5.45 5.45 0 0 0 1.26 3.5 6.05 6.05 0 0 0 -4.18 1.47 4.85 4.85 0 0 0 -1.48-.41c.79-1.17.73-2 1-4.23.51-4.61-5.43-6.34-8.08-3.38-1.54 1.73-1.07 3.44-.82 5.68a4.15 4.15 0 0 0 .72 1.93 4.93 4.93 0 0 0 -1.48.41 6.05 6.05 0 0 0 -4.2-1.47c1.57-1.9 1.26-3.73 1.26-6.5a5.5 5.5 0 0 0 -11 0c0 2.72-.3 4.61 1.26 6.5a6 6 0 0 0 -6.26 6v5a1 1 0 0 0 1 1h46a1 1 0 0 0 1-1v-5a6 6 0 0 0 -6.26-6zm-.74-7a8.49 8.49 0 0 1 -3.5-.87c-1.07-.54-1.23.89-2.86.89h-.54a3.49 3.49 0 0 1 6.9-.02zm-2-4.77a5.25 5.25 0 0 0 -2.94 0 1.5 1.5 0 0 1 2.94-.02zm-5 8.27v-1.5a4.7 4.7 0 0 0 3.16-.83 10.33 10.33 0 0 0 3.84.83v1.5a3.5 3.5 0 0 1 -7 0zm-12-1.72a2.34 2.34 0 0 1 1.74-.78h.52a2.34 2.34 0 0 1 2.33 2.61l-.25 2.3a2.36 2.36 0 0 1 -4.68 0c-.25-2.26-.55-3.14.34-4.13zm-8-1.78a8.49 8.49 0 0 1 -3.5-.87c-1.07-.54-1.23.89-2.86.89h-.59a3.49 3.49 0 0 1 6.95-.02zm-7 3.5v-1.5a4.7 4.7 0 0 0 3.16-.83 10.33 10.33 0 0 0 3.84.83v1.5a3.5 3.5 0 0 1 -7 0zm-5 9.5a4 4 0 0 1 4-4c9.71 0 9.89-.23 11.26.72-1.59 1.81-1.26 3.41-1.26 7.28h-14zm16 4v-4a3 3 0 0 1 3-3h6a3 3 0 0 1 3 3v4zm28 0h-14c0-3.91.33-5.48-1.26-7.28 1.48-1 2.15-.72 11.26-.72a4 4 0 0 1 4 4z"/></g></svg>